<?xml version="1.0" encoding="UTF-8"?><svg id="Assignees" xmlns="http://www.w3.org/2000/svg" viewBox="0 0 1080 1080"><defs><style>.cls-1{fill:#b21e2a;}</style></defs><path class="cls-1" d="m733.47,928.42c-94,0-188.01.01-282.01,0-38.83,0-57.63-19.37-56.85-58.43,2.74-137.41,110.41-260.45,246.89-277.33,69.51-8.59,140.15-10.92,209.32,4.33,121.65,26.83,213.46,135.47,222.07,259.8.34,4.91.83,9.82,1.04,14.74,1.52,35.45-18.59,56.8-53.89,56.86-58.75.11-117.51.03-176.26.03-36.77,0-73.54,0-110.3,0Z"/><path class="cls-1" d="m296.87,539.88c-107.67-.19-194.07-87.8-193.63-196.33.43-105.81,89.14-192.77,195.84-191.98,105.55.78,192.27,87.7,192.58,193.03.32,107.9-87.04,195.48-194.79,195.29Z"/><path class="cls-1" d="m733.82,539.88c-107.69-.18-194.11-87.74-193.7-196.26.4-105.83,89.02-192.77,195.76-192.06,105.95.71,193.44,88.84,192.66,194.1-.8,108.01-87.4,194.4-194.72,194.22Z"/><path class="cls-1" d="m410.35,605.33c-84.43,92.15-125.64,196.93-107.87,323.09-1.79,0-5.79,0-9.8,0-74.32,0-148.64,0-222.97,0-47.78,0-64.15-16.27-63.7-64.41.94-100.39,42.84-179,127-234.07,37.78-24.72,79.86-38.18,125.06-40.51,47.39-2.43,94.79-3.6,140.74,11.77,3.53,1.18,7.01,2.51,11.53,4.14Z"/></svg>