<?xml version="1.0" encoding="UTF-8"?><svg id="Time" xmlns="http://www.w3.org/2000/svg" viewBox="0 0 1080 1080"><defs><style>.cls-1{fill:#fff;}</style></defs><path class="cls-1" d="m2.02,567.2c0-18.18,0-36.35,0-54.53.67-3.39,1.72-6.75,1.94-10.16,3.49-54.73,14.51-107.94,35.79-158.47C116.82,161.04,252.99,49.71,448.41,11.42c20.49-4.01,41.43-5.67,62.17-8.42,19.61,0,39.23,0,58.84,0,3.75.68,7.48,1.49,11.24,2.01,22.86,3.15,46.04,4.76,68.53,9.57,121.55,26,223.07,86.2,302.98,181.33,65.36,77.82,105.42,167.39,119.66,268.15,2.38,16.86,4.11,33.8,6.15,50.71v50.34c-.64,3.36-1.66,6.7-1.87,10.08-4.65,75.32-25.2,146.14-59.74,213.16-104.54,202.84-335.77,319.1-561.13,281.71-113.5-18.83-211.86-68.07-293.47-149.08C76.69,836.51,25.22,734.67,8.06,615.9c-2.34-16.19-4.04-32.46-6.04-48.7Zm1017.45-27.41c-.15-264.55-214.92-478.55-479.98-478.26-265.09.29-478.6,213.38-478.96,478.01-.36,264.73,213.82,478.7,479.24,478.79,265.11.09,479.85-214.13,479.7-478.54Z"/><path class="cls-1" d="m569.06,510.75c5.65,0,9.8,0,13.95,0,74.24,0,148.48,0,222.71.01,3.85,0,7.74-.17,11.54.35,14.75,2,25.26,14.13,25.26,28.82,0,14.62-10.61,26.84-25.28,28.84-3.45.47-6.99.34-10.49.34-86.49.02-172.99.03-259.48,0-25.63,0-36.38-10.75-36.38-36.22,0-112.54-.02-225.08.02-337.61,0-20.51,10.74-32.95,28.28-33.24,14.72-.24,26.38,9,29.08,23.51.82,4.42.75,9.04.75,13.57.04,99.26.03,198.51.03,297.77v13.86Z"/></svg>