<?xml version="1.0" encoding="UTF-8"?><svg id="Layer_1" xmlns="http://www.w3.org/2000/svg" viewBox="0 0 1080 1080"><defs><style>.cls-1{fill:#fff;}</style></defs><path class="cls-1" d="m867.95,123.21c-33.95,25.95-66.8,51.07-100.15,76.56-45.55-29.77-94.52-49.96-147.43-61.22-220.97-47.02-447.47,107.82-483.21,330.73-35.71,222.75,101.99,424.51,321.84,471.57,223.2,47.77,448.04-106.64,484.55-332.39,8.92-55.14,7.77-109.66-6.27-163.72-2.62-10.08-.89-17.52,5.6-25.72,23.1-29.19,45.41-59.01,68.06-88.55,3.1-4.04,6.49-7.86,10.01-12.11,91.02,175.03,72.57,464.12-154.69,641.54-224.02,174.89-544.74,141.58-730.83-74.99C-49.57,669.6-31.49,346.75,178.26,150.59,383.31-41.16,684.37-28.61,867.95,123.21Z"/><path class="cls-1" d="m397.99,621.38c.18-86.68,77.5-153.46,162.39-141.02,6.93,1.01,16.46-1.73,21.84-6.24,133.37-111.77,266.29-224.08,399.54-335.99,8.64-7.25,18.67-13.99,29.21-17.57,19.21-6.52,35.73,8.64,30.45,28.22-3,11.13-9.65,22.11-17.16,31.06-111.43,132.97-223.2,265.65-335.19,398.14-6.95,8.23-9.41,15.3-7.9,26.5,10.66,79.15-49.96,153.96-127.8,159-86.36,5.59-155.57-57.69-155.4-142.1Z"/><path class="cls-1" d="m540.09,253.27c-22.47.04-40.97-18.64-40.79-41.18.18-22.03,17.86-39.94,39.87-40.38,22.54-.45,41.43,17.78,41.71,40.26.28,22.32-18.43,41.26-40.8,41.31Z"/><path class="cls-1" d="m417.18,253.51c-.11,22.35-19.13,41.02-41.43,40.68-22.46-.35-40.66-19.3-40.15-41.83.5-21.97,18.5-39.63,40.52-39.74,22.56-.11,41.17,18.42,41.06,40.89Z"/><path class="cls-1" d="m744.57,254.06c-.45,22.33-19.77,40.8-41.98,40.12-22.45-.69-40.38-19.89-39.57-42.38.79-21.94,19.05-39.37,41.05-39.18,22.5.19,40.95,19.06,40.5,41.44Z"/><path class="cls-1" d="m254.24,416.93c-22.39.42-41.25-18.07-41.4-40.57-.15-22,17.32-40.23,39.27-40.98,22.54-.77,41.66,17.14,42.31,39.63.64,22.26-17.8,41.51-40.18,41.92Z"/><path class="cls-1" d="m213.41,580.6c-22.38.48-41.29-17.97-41.5-40.47-.2-22.03,17.18-40.26,39.16-41.07,22.51-.83,41.72,17.07,42.42,39.52.7,22.23-17.72,41.55-40.08,42.02Z"/><path class="cls-1" d="m867.54,499.03c22.49.07,41.06,18.87,40.73,41.24-.32,21.72-18.49,39.94-40.21,40.33-22.37.4-41.23-18.11-41.37-40.6-.14-22.63,18.21-41.04,40.85-40.97Z"/></svg>