<?xml version="1.0" encoding="UTF-8"?><svg id="Edit" xmlns="http://www.w3.org/2000/svg" viewBox="0 0 1080 1080"><defs><style>.cls-1{fill:#757575;}</style></defs><path class="cls-1" d="m946.64,796.53c0,109.54-89.02,198.56-198.56,198.56h-478.95c-109.54,0-198.56-89.02-198.56-198.56v-478.82c0-109.54,89.02-198.56,198.56-198.56h172.98v-56.9h-172.98c-140.86,0-255.47,114.61-255.47,255.47v478.82c0,140.86,114.61,255.47,255.47,255.47h478.82c140.86,0,255.47-114.61,255.47-255.47v-172.98h-56.9v172.98h.13Z"/><path class="cls-1" d="m1020.47,73.84c-30.52-30.52-70.63-45.84-110.74-45.84s-80.09,15.33-110.74,45.84L250.6,622.22c-22.52,22.52-37.18,51.71-41.58,83.29l-25.32,176.97c-2.13,15.19,9.73,28.39,24.52,28.39,1.2,0,2.4-.13,3.6-.27l176.97-25.32c31.58-4.53,60.77-19.06,83.29-41.58L1020.47,295.33c61.17-61.17,61.17-160.32,0-221.48h0ZM317.23,636.08l464.16-464.16,140.86,140.99-464.03,464.16-140.99-140.99Zm63.57,192.83l-134.73,19.19,19.19-134.73c1.87-12.66,6.4-24.92,13.19-35.58l137.79,137.79c-10.66,6.93-22.79,11.59-35.45,13.33h0ZM980.22,254.95l-17.72,17.72-140.86-140.99,17.72-17.72c18.79-18.79,43.84-29.18,70.5-29.18s51.71,10.39,70.5,29.18c38.78,38.91,38.78,102.21-.13,140.99h0Z"/></svg>