<?xml version="1.0" encoding="UTF-8"?><svg id="Logo" xmlns="http://www.w3.org/2000/svg" viewBox="0 0 1080 1080"><defs><style>.cls-1{fill:#b21e2a;}</style></defs><path class="cls-1" d="m539.59,4.83c296.83.24,535.67,239.16,535.41,535.59-.26,296.69-239.25,535.15-535.93,534.75C242.62,1074.77,4.78,835.8,5,538.54,5.22,243.85,244.88,4.59,539.59,4.83Zm2.44,18.7C254.8,23,24.02,251.66,23.21,537.57c-.82,287.86,228.99,519.28,516.11,519.73,286.98.45,517.34-230.15,517.69-518.25.35-284.4-230.02-515-514.98-515.52Z"/><path class="cls-1" d="m632.73,546c-11.35-1.14-20.92-1.04-29.85-3.39-5.44-1.43-9.89-6.63-14.78-10.14,4.5-3.11,8.82-8.5,13.54-8.88,13.95-1.12,28.19-1.33,42.03.41,4.85.61,12.39,7.68,12.66,12.16,1.31,22.31.6,44.74.6,60.33-21.33,4.59-36.93,9.95-52.77,10.81-16.09.87-33.93.94-48.34-5.03-36.41-15.1-49.12-71.06-28-112.81,18.69-36.95,62.28-51.06,98.23-28.97,12.5,7.68,20.22,23.12,30.13,35.01-2.81,3.36-5.63,6.72-8.44,10.08-7.23-4.17-14.16-9-21.74-12.37-15-6.67-31.94-19.64-45.14-16.72-13.33,2.95-28.31,20.13-33.36,34.35-11.06,31.12.43,62.05,20.97,72.41,27.95,14.1,54.41.45,64.29-37.23Z"/><path class="cls-1" d="m677.03,530.77c.18-48.04,30.59-80.56,75.27-80.51,43.02.05,72.78,31.4,72.89,76.79.12,49.35-31.19,83.9-75.6,83.43-43.84-.46-72.73-32.21-72.56-79.71Zm121.42-.55c.5-34.83-18.14-57.18-47.41-56.81-28.98.36-46.19,20.47-47.01,54.96-.89,37.66,14.34,57.75,44.53,58.72,31.88,1.03,49.33-18.87,49.88-56.87Z"/><path class="cls-1" d="m505.4,527.03c.27,50.71-29.39,83.72-74.83,83.29-43.85-.42-71.6-30.17-71.86-77.05-.27-49.8,27.81-82.04,72.26-82.98,45.21-.96,74.18,28.9,74.43,76.74Zm-24.56,1.79c-.14-32.62-19.11-54.65-47.45-55.1-29.93-.48-49.24,22.47-49.37,58.68-.12,34.51,18.62,55.13,49.65,54.64,28.04-.44,47.33-24.25,47.18-58.23Z"/><path class="cls-1" d="m251.49,605.56c0-48.09-.45-91.94.62-135.75.12-4.99,8.76-9.77,13.45-14.65,3.76,5.92,10.6,11.75,10.78,17.78,1.04,35.05.51,70.14.51,110.21,20.41,0,38.57-.98,56.52.56,5.85.5,11.15,7.55,16.7,11.61-5.07,3.41-10.02,9.58-15.21,9.78-26.25,1.01-52.56.46-83.35.46Z"/></svg>