<?xml version="1.0" encoding="UTF-8"?><svg id="Logoff" xmlns="http://www.w3.org/2000/svg" viewBox="0 0 1080 1080"><defs><style>.cls-1{fill:#b21e2a;}</style></defs><path class="cls-1" d="m14.2,810.41c0-246.81,0-493.61,0-740.42.39-1.14.86-2.26,1.14-3.43,3.67-15.23,12.19-26.91,26.03-34.24,5.25-2.78,11.2-4.26,16.83-6.33,216.04,0,432.09,0,648.13,0,.29.2.55.52.87.59,29.4,7.17,43.65,25.29,43.66,55.65.01,55.44,0,110.88,0,166.32,0,2.23,0,4.47,0,6.7h-102.71v-6.57c0-30.22.01-60.45,0-90.67-.01-19.57-9.71-29.26-29.38-29.27-132.7-.01-265.4,0-398.1,0-1.66,0-3.33.19-6.33.36,2.57,1.47,3.88,2.29,5.24,2.99,72.61,37.26,145.12,74.72,217.89,111.65,22.9,11.62,33.5,29.28,33.45,54.92-.28,140.57-.13,281.14-.13,421.7,0,2.47,0,4.93,0,7.52,1.61.26,2.64.56,3.67.57,49.18.02,98.36.04,147.54-.03,7.44-.01,14.03-2.52,19.21-8.09,5.62-6.05,6.85-13.46,6.85-21.38-.05-64.38-.03-128.76-.03-193.15,0-2.23,0-4.45,0-6.6h102.37c.11,1.55.27,2.77.27,3.99,0,91.92.11,183.85-.2,275.77-.02,7.29-1.56,15.16-4.6,21.75-9.68,20.95-26.91,30.4-49.88,30.37-72.97-.12-145.93-.04-218.9-.04h-7.2c0,3.13,0,5.43,0,7.73,0,61.88-.02,123.76.03,185.64,0,8.34-1.25,16.34-7.89,21.94-3.83,3.23-8.79,5.13-13.24,7.63h-9.66c-3.57-1.58-7.22-2.97-10.68-4.75-41.23-21.29-82.43-42.63-123.63-63.97-86.85-44.96-173.68-89.97-260.58-134.84-12.48-6.44-21.47-15.81-26.6-28.82-1.43-3.63-2.31-7.46-3.45-11.21Z"/><path class="cls-1" d="m884.01,430.28c-3.6,0-5.73,0-7.87,0-93.51,0-187.03-.06-280.54.04-22.91.02-40.28-9.44-50.35-30.02-10.37-21.19-8.35-42.14,5.46-61.27,10.44-14.46,25.46-21.01,43.13-21.02,94.23-.09,188.46-.04,282.69-.04,2.1,0,4.2,0,7.37,0-1.74-1.98-2.77-3.3-3.94-4.47-23.36-23.17-46.64-46.42-70.12-69.45-28.93-28.38-18.88-76.54,18.72-87.63,21.11-6.22,39.54-.17,54.97,15.1,20.21,19.99,40.25,40.16,60.35,60.27,34.77,34.77,69.51,69.57,104.32,104.3,8.16,8.14,14.24,17.42,16.53,28.84,3.28,16.35-1.07,30.76-11.52,43.49-1.81,2.21-3.84,4.24-5.86,6.26-54.1,54.12-108.24,108.2-162.3,162.37-8.8,8.82-18.73,15.51-31.16,17.68-39.97,6.99-70.91-29.76-57.76-68.48,3.05-8.98,8.01-16.69,14.74-23.34,22.65-22.36,45.27-44.74,67.9-67.13,1.47-1.46,2.87-2.99,5.26-5.49Z"/></svg>