<?xml version="1.0" encoding="UTF-8"?><svg id="Projects" xmlns="http://www.w3.org/2000/svg" viewBox="0 0 1080 1080"><defs><style>.cls-1{fill:#fff;}</style></defs><path class="cls-1" d="m429.81,8h220.16c31.28,12.27,28.32,39.47,27.16,65.97,4.62.22,7.98.51,11.34.52,21.11.04,42.23-.16,63.34.08,19.41.22,33.03,14.2,33.21,33.62.07,7.47.01,14.94.01,22.93,37.54,0,73.52,0,109.5,0,35.7,0,48.06,8.36,60.76,41.06v860.35c-.61.77-1.48,1.44-1.8,2.31-9.59,26.46-24.81,37.17-52.98,37.17-241.18,0-482.36,0-723.54,0-31.3,0-52.2-20.48-52.21-51.82-.08-278.7-.08-557.4,0-836.11,0-32.79,20.45-52.85,53.32-52.93,34.6-.09,69.21-.02,103.81-.02,4.01,0,8.02,0,12.86,0,0-3.74,0-6.1,0-8.45,0-5.19-.08-10.39.02-15.58.34-18.59,14.17-32.35,33.25-32.52,24.45-.23,48.91-.06,74.66-.06-1.21-27.06-4.14-54.24,27.13-66.51Zm-135.41,166.65c-39.15,0-76.5.25-113.83-.17-9.43-.11-12.59,2.79-12.59,12.45.21,276.31.21,552.63,0,828.94,0,9.35,2.41,12.68,12.23,12.67,239.83-.23,479.65-.22,719.48-.04,8.85,0,12.09-2.43,12.08-11.75-.21-276.66-.21-553.32,0-829.98,0-9.82-3.46-12.41-12.74-12.3-34.6.42-69.21.15-103.82.2-2.99,0-5.97.44-9.86.75,0,13.5.04,26.25,0,38.99-.1,24.55-12.57,37.11-36.87,37.12-139.12.01-278.24.01-417.36,0-23.84,0-36.57-12.55-36.72-36.23-.08-13.07-.01-26.15-.01-40.66Zm44.62-56.73v88.81h401.73v-88.81c-26.06,0-51.29.11-76.52-.03-21.65-.13-30.25-8.77-30.35-30.11-.06-11.68-.01-23.36-.01-35.49h-187.94c0,11.32,0,21.99,0,32.67-.02,24.88-7.97,32.92-32.74,32.95-24.51.04-49.02,0-74.16,0Z"/><path class="cls-1" d="m638.15,448.06c-47.05,0-94.1-.05-141.15.04-9.23.02-17.07-2.43-22.24-10.59-8.12-12.82-1.55-29.18,13.19-32.74,2.66-.64,5.47-.89,8.21-.89,95.49-.04,190.97-.02,286.46-.07,10.1,0,18.5,2.99,23.04,12.65,7.32,15.57-3.72,31.45-22.19,31.54-42.55.19-85.11.06-127.66.06-5.88,0-11.76,0-17.64,0Z"/><path class="cls-1" d="m640.69,612.34c47.74,0,95.49.09,143.23-.08,9.61-.03,18.06,3.16,20.94,12.01,2.11,6.46,2.23,15.81-1.1,21.18-3.35,5.38-12.05,10.42-18.44,10.47-97.22.65-194.44.52-291.66.37-13.04-.02-22.42-9.95-22.34-22.37.08-12.23,9.6-21.48,23.01-21.52,48.78-.15,97.57-.06,146.35-.06Z"/><path class="cls-1" d="m638.54,826.38c46.01,0,92.03,0,138.04.01,3.8,0,7.63-.07,11.4.32,11.58,1.2,19.58,9.95,19.83,21.41.24,10.92-8.19,20.61-19.35,22.16-1.7.24-3.45.13-5.18.13-95.83,0-191.66.02-287.5-.02-11.92,0-20.13-5.52-23.3-15.22-3.1-9.47-.48-19.3,8.38-24.42,5.02-2.9,11.65-4.15,17.57-4.19,46.7-.33,93.41-.18,140.11-.18Z"/><path class="cls-1" d="m327.31,839.35c12.9-15.61,25.21-30.5,37.52-45.4,1.98-2.4,3.77-5,6-7.14,7.34-7.05,17.82-7.56,25.55-1.44,7.94,6.29,10.45,17.95,4.02,26.01-20.04,25.15-40.34,50.12-61.3,74.5-8.28,9.63-22.01,7.76-29.55-2.86-8.6-12.11-16.9-24.45-24.97-36.92-6.27-9.68-3.88-21.69,4.94-27.51,8.94-5.9,20.65-3.54,27.46,5.71,3.42,4.64,6.53,9.5,10.32,15.05Z"/><path class="cls-1" d="m327.24,428.37c13.41-16.35,26.34-32.02,39.14-47.78,5.49-6.76,11.83-11.95,21.11-10.28,14.38,2.59,21.69,18.6,12.6,30.31-19.66,25.33-40.23,49.99-61.07,74.36-7.39,8.63-21.25,7.69-28.24-1.64-9.7-12.96-18.71-26.5-27.15-40.32-5.54-9.08-2.35-20.05,5.9-25.55,8.65-5.77,19.82-3.85,26.72,4.97,3.77,4.83,6.99,10.08,11,15.94Z"/><path class="cls-1" d="m327.22,630.06c12.58-15.31,24.2-29.46,35.83-43.58,2.42-2.93,4.73-6,7.45-8.64,8.28-8.03,18.82-8.33,26.99-1,7.4,6.64,8.9,18,2.22,26.31-19.49,24.27-39.23,48.34-59.33,72.11-8.54,10.09-22.68,9.45-30.48-1.21-8.98-12.27-17.39-24.98-25.52-37.83-5.99-9.48-3.61-20.95,4.69-26.83,8.69-6.14,20.6-4.07,27.56,5.09,3.54,4.66,6.61,9.68,10.59,15.58Z"/></svg>