<?xml version="1.0" encoding="UTF-8"?><svg id="Layer_8" xmlns="http://www.w3.org/2000/svg" viewBox="0 0 1080 1080"><defs><style>.cls-1{fill:#fff;fill-rule:evenodd;}</style></defs><path class="cls-1" d="m84.4,179.23h89.26v719.56h-89.26c-42.07,0-76.4-34.33-76.4-76.4V255.54c0-41.98,34.33-76.31,76.4-76.31h0ZM462.91,31.13h152.01c47.28,0,85.96,38.68,85.96,85.96v45.89h-54.76v-46.06c0-16.6-13.56-30.16-30.16-30.16h-154.1c-16.6,0-30.16,13.56-30.16,30.16v46.06h-54.76v-45.89c0-47.28,38.68-85.96,85.96-85.96h0Zm-243.88,148.1h635.78v719.56H219.03V179.23h0Zm681.15,0h99.43c41.98,0,76.4,34.33,76.4,76.4v566.85c0,41.98-34.33,76.4-76.4,76.4h-99.43V179.23h0Z"/></svg>